<svg xmlns="http://www.w3.org/2000/svg" xmlns:xlink="http://www.w3.org/1999/xlink" width="371.499" height="271.81" viewBox="0 0 371.499 271.81">
  <defs>
    <clipPath id="clip-path">
      <path id="Path_7204" data-name="Path 7204" d="M202.049,162.881l7.071,31.763a98.548,98.548,0,0,1-30.457,20.964,64.311,64.311,0,0,1-36.366,4.481L127.035,191.93Z" fill="#ffab2f"/>
    </clipPath>
  </defs>
  <g id="Group_6015" data-name="Group 6015" transform="translate(-64.25 -59.415)">
    <path id="Path_7148" data-name="Path 7148" d="M322.676,287.5c19.682,2.675,40.4,2.577,58.5-5.94a52.782,52.782,0,0,0,30.033-47.8c.056-17.847-7.575-34.252-21.174-44.986-15.207-12-35.254-18.243-53.732-13.449s-34.289,21.979-35.238,41.911c-.364,7.636,2.1,16.34,8.7,19.58,8.279,4.06,17.73-2.545,23.7-9.8a87.69,87.69,0,0,0,16.807-32.672c3.444-12.7,3.7-27.472-3.992-37.923-3.946-5.361-9.6-9.054-15.432-11.976-6.086-3.053-12.729-5.429-19.456-4.885-10.25.828-18.855,8.176-26.256,15.656-24.552,24.815-49.049,53.155-80.564,66.815-32.2,13.956-72.06,18.178-99.975-11.036-31.666-33.139-14.3-92.263,25.968-102.572C211.723,87.65,300.663,131.8,311.7,73.368" fill="none" stroke="#313941" stroke-linecap="round" stroke-linejoin="round" stroke-width="1.5" stroke-dasharray="3 4" opacity="0.5"/>
    <g id="Group_5960" data-name="Group 5960">
      <path id="Path_7149" data-name="Path 7149" d="M287.5,303.5l3.736,9.4,11.2,8.592-2.988-9.4Z" fill="#ac2d22"/>
      <path id="Path_7150" data-name="Path 7150" d="M324.376,312.1h26.291L338.718,303.5H316.981l7.395,8.343Z" fill="#5a9eaa"/>
      <path id="Path_7151" data-name="Path 7151" d="M324.376,311.847l-7.395-8.343H287.5L299.45,312.1h24.926Z" fill="#dc432b"/>
      <path id="Path_7152" data-name="Path 7152" d="M299.45,312.1l2.988,9.4h21.937v-9.4Z" fill="#ea554e"/>
      <path id="Path_7153" data-name="Path 7153" d="M350.667,312.1H324.376v9.4h30.133Z" fill="#4a888e"/>
    </g>
    <path id="Path_7154" data-name="Path 7154" d="M273.105,284.639S99.915,278.7,92.787,289.952s96.631,11.955,80.79,14.065-106.928-.7-109.3,12.659,182.965,7.032,225.472,3.047c5.68-.532-67.325,5.861-67.853,9.611-.982,6.978,214.647-6.329,213.855-23.91C435.024,289.369,273.105,284.639,273.105,284.639Z" fill="#e2e4e9" opacity="0.7" style="mix-blend-mode: multiply;isolation: isolate"/>
    <g id="Group_5962" data-name="Group 5962">
      <path id="Path_7155" data-name="Path 7155" d="M265.117,66.454l-13.1,31.811c2.923,16,21.452,14.673,21.452,14.673l8.246-13.8L270.59,66.851A12.238,12.238,0,0,1,265.117,66.454Z" fill="#eedac2"/>
      <path id="Path_7156" data-name="Path 7156" d="M267.564,98.722l.068-34.169,2.958,2.3,11.122,32.286S278.27,112.728,267.564,98.722Z" fill="#dfbfa1"/>
      <path id="Path_7157" data-name="Path 7157" d="M265.117,66.454a12.238,12.238,0,0,0,5.473.4l-2.574-7.436Z" fill="#1d2027"/>
      <path id="Path_7158" data-name="Path 7158" d="M274.809,103.089a8.6,8.6,0,0,1-7.245-4.367,11.4,11.4,0,0,1-8.514,3.026c-5.613-.164-7.036-3.483-7.036-3.483l-1.572,175.256,24.782.728,6.488-175.112S281.179,103.33,274.809,103.089Z" fill="#ffab2f"/>
      <g id="Group_5961" data-name="Group 5961">
        <path id="Path_7159" data-name="Path 7159" d="M267.564,98.722a11.4,11.4,0,0,1-8.514,3.026c-5.613-.164-7.036-3.483-7.036-3.483l-1.572,175.256,13.088.384Z" fill="#ea9a23"/>
      </g>
      <rect id="Rectangle_1743" data-name="Rectangle 1743" width="24.798" height="16.376" rx="2.083" transform="translate(249.852 283.451) rotate(1.682)" fill="#dc432b"/>
      <rect id="Rectangle_1744" data-name="Rectangle 1744" width="28.074" height="16.376" rx="2.083" transform="translate(248.593 270.541) rotate(1.682)" fill="#d6d8d7"/>
      <path id="Path_7160" data-name="Path 7160" d="M254.661,111.937q-.552,78.371-1.1,156.741" fill="none" stroke="#fff" stroke-miterlimit="10" stroke-width="0.25" opacity="0.2"/>
      <path id="Path_7161" data-name="Path 7161" d="M249.59,272.443l21.4.628" fill="none" stroke="#fff" stroke-miterlimit="10" stroke-width="0.25" opacity="0.2"/>
      <path id="Path_7162" data-name="Path 7162" d="M251.551,289.352l20.345.6" fill="none" stroke="#fff" stroke-miterlimit="10" stroke-width="0.25" opacity="0.2"/>
      <path id="Path_7163" data-name="Path 7163" d="M278.986,109.428v29.945" fill="none" stroke="#fff" stroke-miterlimit="10" stroke-width="0.25" opacity="0.2"/>
    </g>
    <g id="Group_5965" data-name="Group 5965">
      <path id="Path_7164" data-name="Path 7164" d="M242.047,106.714l-38.2,2.037L217.322,282.5l32.629-1.479Zm-31.437,11.92c-4.774,0-4.766-7.406,0-7.406S215.375,118.634,210.61,118.634Z" fill="#eb8b0b"/>
      <g id="Group_5963" data-name="Group 5963">
        <path id="Rectangle_1745" data-name="Rectangle 1745" d="M1.165,0h.25A1.164,1.164,0,0,1,2.579,1.164V169.6a1.165,1.165,0,0,1-1.165,1.165H1.164A1.164,1.164,0,0,1,0,169.6V1.165A1.165,1.165,0,0,1,1.165,0Z" transform="matrix(0.999, -0.045, 0.045, 0.999, 224.655, 112.091)" fill="#eb8b0b" opacity="0.5" style="mix-blend-mode: multiply;isolation: isolate"/>
        <rect id="Rectangle_1746" data-name="Rectangle 1746" width="10.887" height="1.755" transform="matrix(0.999, -0.045, 0.045, 0.999, 231.556, 115.704)" fill="#eb8b0b" opacity="0.5" style="mix-blend-mode: multiply;isolation: isolate"/>
        <rect id="Rectangle_1747" data-name="Rectangle 1747" width="6.733" height="1.755" transform="translate(235.868 119.094) rotate(-2.596)" fill="#eb8b0b" opacity="0.5" style="mix-blend-mode: multiply;isolation: isolate"/>
        <rect id="Rectangle_1748" data-name="Rectangle 1748" width="10.887" height="1.755" transform="translate(231.892 123.11) rotate(-2.596)" fill="#eb8b0b" opacity="0.5" style="mix-blend-mode: multiply;isolation: isolate"/>
        <rect id="Rectangle_1749" data-name="Rectangle 1749" width="6.733" height="1.755" transform="translate(236.204 126.5) rotate(-2.596)" fill="#eb8b0b" opacity="0.5" style="mix-blend-mode: multiply;isolation: isolate"/>
        <rect id="Rectangle_1750" data-name="Rectangle 1750" width="10.887" height="1.755" transform="translate(232.227 130.516) rotate(-2.597)" fill="#eb8b0b" opacity="0.5" style="mix-blend-mode: multiply;isolation: isolate"/>
        <rect id="Rectangle_1751" data-name="Rectangle 1751" width="6.733" height="1.755" transform="translate(236.54 133.905) rotate(-2.596)" fill="#eb8b0b" opacity="0.5" style="mix-blend-mode: multiply;isolation: isolate"/>
        <rect id="Rectangle_1752" data-name="Rectangle 1752" width="10.887" height="1.755" transform="translate(232.563 137.922) rotate(-2.596)" fill="#eb8b0b" opacity="0.5" style="mix-blend-mode: multiply;isolation: isolate"/>
        <rect id="Rectangle_1753" data-name="Rectangle 1753" width="6.733" height="1.755" transform="translate(236.876 141.311) rotate(-2.596)" fill="#eb8b0b" opacity="0.5" style="mix-blend-mode: multiply;isolation: isolate"/>
        <rect id="Rectangle_1754" data-name="Rectangle 1754" width="10.887" height="1.755" transform="translate(232.899 145.328) rotate(-2.597)" fill="#eb8b0b" opacity="0.5" style="mix-blend-mode: multiply;isolation: isolate"/>
        <rect id="Rectangle_1755" data-name="Rectangle 1755" width="6.733" height="1.755" transform="translate(237.212 148.717) rotate(-2.596)" fill="#eb8b0b" opacity="0.5" style="mix-blend-mode: multiply;isolation: isolate"/>
        <rect id="Rectangle_1756" data-name="Rectangle 1756" width="10.887" height="1.755" transform="matrix(0.999, -0.045, 0.045, 0.999, 233.235, 152.734)" fill="#eb8b0b" opacity="0.5" style="mix-blend-mode: multiply;isolation: isolate"/>
        <rect id="Rectangle_1757" data-name="Rectangle 1757" width="6.733" height="1.755" transform="matrix(0.999, -0.045, 0.045, 0.999, 237.547, 156.123)" fill="#eb8b0b" opacity="0.5" style="mix-blend-mode: multiply;isolation: isolate"/>
        <rect id="Rectangle_1758" data-name="Rectangle 1758" width="10.887" height="1.755" transform="matrix(0.999, -0.045, 0.045, 0.999, 233.571, 160.14)" fill="#eb8b0b" opacity="0.5" style="mix-blend-mode: multiply;isolation: isolate"/>
        <rect id="Rectangle_1759" data-name="Rectangle 1759" width="6.733" height="1.755" transform="translate(237.883 163.529) rotate(-2.596)" fill="#eb8b0b" opacity="0.5" style="mix-blend-mode: multiply;isolation: isolate"/>
        <rect id="Rectangle_1760" data-name="Rectangle 1760" width="10.887" height="1.755" transform="matrix(0.999, -0.045, 0.045, 0.999, 233.907, 167.545)" fill="#eb8b0b" opacity="0.5" style="mix-blend-mode: multiply;isolation: isolate"/>
        <rect id="Rectangle_1761" data-name="Rectangle 1761" width="6.733" height="1.755" transform="translate(238.219 170.935) rotate(-2.596)" fill="#eb8b0b" opacity="0.5" style="mix-blend-mode: multiply;isolation: isolate"/>
        <rect id="Rectangle_1762" data-name="Rectangle 1762" width="10.887" height="1.755" transform="matrix(0.999, -0.045, 0.045, 0.999, 234.242, 174.951)" fill="#eb8b0b" opacity="0.5" style="mix-blend-mode: multiply;isolation: isolate"/>
        <rect id="Rectangle_1763" data-name="Rectangle 1763" width="6.733" height="1.755" transform="translate(238.555 178.341) rotate(-2.596)" fill="#eb8b0b" opacity="0.5" style="mix-blend-mode: multiply;isolation: isolate"/>
        <rect id="Rectangle_1764" data-name="Rectangle 1764" width="10.887" height="1.755" transform="matrix(0.999, -0.045, 0.045, 0.999, 234.578, 182.357)" fill="#eb8b0b" opacity="0.5" style="mix-blend-mode: multiply;isolation: isolate"/>
      </g>
      <g id="Group_5964" data-name="Group 5964" opacity="0.5" style="mix-blend-mode: multiply;isolation: isolate">
        <rect id="Rectangle_1765" data-name="Rectangle 1765" width="6.733" height="1.755" transform="translate(238.891 185.747) rotate(-2.596)" fill="#eb8b0b"/>
        <rect id="Rectangle_1766" data-name="Rectangle 1766" width="10.887" height="1.755" transform="translate(234.914 189.763) rotate(-2.597)" fill="#eb8b0b"/>
        <rect id="Rectangle_1767" data-name="Rectangle 1767" width="6.733" height="1.755" transform="translate(239.227 193.153) rotate(-2.595)" fill="#eb8b0b"/>
        <rect id="Rectangle_1768" data-name="Rectangle 1768" width="10.887" height="1.755" transform="translate(235.25 197.169) rotate(-2.596)" fill="#eb8b0b"/>
        <rect id="Rectangle_1769" data-name="Rectangle 1769" width="6.733" height="1.755" transform="matrix(0.999, -0.045, 0.045, 0.999, 239.562, 200.558)" fill="#eb8b0b"/>
        <rect id="Rectangle_1770" data-name="Rectangle 1770" width="10.887" height="1.755" transform="matrix(0.999, -0.045, 0.045, 0.999, 235.586, 204.575)" fill="#eb8b0b"/>
        <rect id="Rectangle_1771" data-name="Rectangle 1771" width="6.733" height="1.755" transform="translate(239.898 207.964) rotate(-2.596)" fill="#eb8b0b"/>
        <rect id="Rectangle_1772" data-name="Rectangle 1772" width="10.887" height="1.755" transform="translate(235.922 211.981) rotate(-2.596)" fill="#eb8b0b"/>
        <rect id="Rectangle_1773" data-name="Rectangle 1773" width="6.733" height="1.755" transform="translate(240.234 215.37) rotate(-2.596)" fill="#eb8b0b"/>
        <rect id="Rectangle_1774" data-name="Rectangle 1774" width="10.887" height="1.755" transform="translate(236.258 219.387) rotate(-2.596)" fill="#eb8b0b"/>
        <rect id="Rectangle_1775" data-name="Rectangle 1775" width="6.733" height="1.755" transform="translate(240.57 222.776) rotate(-2.596)" fill="#eb8b0b"/>
        <rect id="Rectangle_1776" data-name="Rectangle 1776" width="10.887" height="1.755" transform="matrix(0.999, -0.045, 0.045, 0.999, 236.593, 226.793)" fill="#eb8b0b"/>
        <rect id="Rectangle_1777" data-name="Rectangle 1777" width="6.733" height="1.755" transform="translate(240.906 230.182) rotate(-2.596)" fill="#eb8b0b"/>
        <rect id="Rectangle_1778" data-name="Rectangle 1778" width="10.887" height="1.755" transform="translate(236.929 234.198) rotate(-2.596)" fill="#eb8b0b"/>
        <rect id="Rectangle_1779" data-name="Rectangle 1779" width="6.733" height="1.755" transform="translate(241.242 237.588) rotate(-2.596)" fill="#eb8b0b"/>
        <rect id="Rectangle_1780" data-name="Rectangle 1780" width="10.887" height="1.755" transform="translate(237.265 241.604) rotate(-2.596)" fill="#eb8b0b"/>
        <rect id="Rectangle_1781" data-name="Rectangle 1781" width="6.733" height="1.755" transform="translate(241.577 244.994) rotate(-2.596)" fill="#eb8b0b"/>
        <rect id="Rectangle_1782" data-name="Rectangle 1782" width="10.887" height="1.755" transform="matrix(0.999, -0.045, 0.045, 0.999, 237.607, 249.141)" fill="#eb8b0b"/>
        <rect id="Rectangle_1783" data-name="Rectangle 1783" width="6.733" height="1.755" transform="translate(241.919 252.531) rotate(-2.596)" fill="#eb8b0b"/>
        <rect id="Rectangle_1784" data-name="Rectangle 1784" width="10.887" height="1.755" transform="matrix(0.999, -0.045, 0.045, 0.999, 237.949, 256.678)" fill="#eb8b0b"/>
        <rect id="Rectangle_1785" data-name="Rectangle 1785" width="6.733" height="1.755" transform="translate(242.261 260.068) rotate(-2.596)" fill="#eb8b0b"/>
        <rect id="Rectangle_1786" data-name="Rectangle 1786" width="10.887" height="1.755" transform="translate(238.29 264.215) rotate(-2.596)" fill="#eb8b0b"/>
        <rect id="Rectangle_1787" data-name="Rectangle 1787" width="6.733" height="1.755" transform="translate(242.603 267.605) rotate(-2.596)" fill="#eb8b0b"/>
        <rect id="Rectangle_1788" data-name="Rectangle 1788" width="10.887" height="1.755" transform="translate(238.632 271.753) rotate(-2.597)" fill="#eb8b0b"/>
        <rect id="Rectangle_1789" data-name="Rectangle 1789" width="6.733" height="1.755" transform="translate(242.945 275.142) rotate(-2.597)" fill="#eb8b0b"/>
      </g>
      <path id="Path_7165" data-name="Path 7165" d="M208.445,129.042q4.048,53.8,8.095,107.61" fill="none" stroke="#fff" stroke-miterlimit="10" stroke-width="0.25" opacity="0.2"/>
    </g>
    <g id="Group_5968" data-name="Group 5968">
      <path id="Path_7166" data-name="Path 7166" d="M268.634,283.306l-.818,1.794a20.6,20.6,0,0,0,.818,18.7h0L223.9,316.741l-.647-21.355Z" fill="#e8e1ca"/>
      <path id="Path_7167" data-name="Path 7167" d="M226.623,317.82l41.93-13.06v-2.589l-45.732,13.707Z" fill="#3c9da3"/>
      <path id="Path_7168" data-name="Path 7168" d="M226.623,296.249h-99.66l43.953-12.943h97.719Z" fill="#dc432b"/>
      <path id="Path_7169" data-name="Path 7169" d="M126.962,296.249l-.177.335a23.322,23.322,0,0,0,.387,21.722h0l99.563-.062-.264-.792a27.369,27.369,0,0,1,.152-21.2H126.962Z" fill="#ac2d22"/>
      <path id="Path_7170" data-name="Path 7170" d="M228.848,301.776s2.114-1.046,5.367-2.364c1.623-.668,3.53-1.406,5.587-2.156,1.032-.366,2.088-.772,3.179-1.134l3.3-1.12,3.32-1.054c1.092-.358,2.185-.654,3.232-.971,2.1-.616,4.075-1.151,5.779-1.574,3.4-.866,5.723-1.275,5.723-1.275s-2.112,1.048-5.365,2.366c-1.623.669-3.53,1.408-5.588,2.156-1.031.366-2.087.775-3.179,1.133l-3.3,1.118-3.321,1.054c-1.093.354-2.184.653-3.232.97-2.1.615-4.075,1.15-5.779,1.574C231.17,301.365,228.848,301.776,228.848,301.776Z" fill="#d3c9ae"/>
      <path id="Path_7171" data-name="Path 7171" d="M229.257,306.739A36.529,36.529,0,0,1,232.619,305c1.022-.481,2.228-1,3.535-1.517s2.708-1.044,4.126-1.522,2.849-.918,4.2-1.294,2.626-.7,3.731-.936a36.25,36.25,0,0,1,3.728-.653,36.429,36.429,0,0,1-3.36,1.741c-1.022.481-2.229,1-3.536,1.517s-2.708,1.041-4.126,1.519-2.851.915-4.2,1.292-2.627.7-3.732.936A36.489,36.489,0,0,1,229.257,306.739Z" fill="#d3c9ae"/>
      <path id="Path_7172" data-name="Path 7172" d="M240.037,307.975a36.531,36.531,0,0,1,3.362-1.739c1.022-.481,2.228-1,3.535-1.517s2.708-1.044,4.126-1.522,2.849-.918,4.2-1.294,2.627-.7,3.731-.936a36.441,36.441,0,0,1,3.729-.654,36.373,36.373,0,0,1-3.361,1.742c-1.022.481-2.229,1-3.535,1.517s-2.709,1.041-4.127,1.519-2.851.915-4.2,1.292-2.627.7-3.731.936A36.53,36.53,0,0,1,240.037,307.975Z" fill="#d3c9ae"/>
      <path id="Path_7173" data-name="Path 7173" d="M130.807,303.736q39.559,2.393,79.225,1.933c3.917-.046,8.27-.289,11.009-3.09-2.554-.975-5.373-.886-8.106-.809a430.411,430.411,0,0,1-47.06-1.263c-12.226-1-24.648-2.513-36.663-.041-.519.107-1.118.29-1.292.79-.321.922,1.034,1.449,2.009,1.477l47.161,1.34" fill="#fff" stroke="#fff" stroke-miterlimit="10" stroke-width="0.25" opacity="0.2"/>
      <path id="Path_7174" data-name="Path 7174" d="M234.275,294.977a8.11,8.11,0,0,0-5.381,1.869.946.946,0,0,0-1.186.364c-2.365,3.409-6,18.238,1.549,18.553a3.207,3.207,0,0,0,2.643-1.121c1.089-1.357.147-2.893-.023-4.463a17.168,17.168,0,0,1,.891-7.647c.745-2.076,2.12-3.817,2.742-5.933A1.293,1.293,0,0,0,234.275,294.977Z" fill="#d3ccba"/>
      <g id="Group_5967" data-name="Group 5967">
        <g id="Group_5966" data-name="Group 5966">
          <path id="Path_7175" data-name="Path 7175" d="M226.623,318.247a1.5,1.5,0,0,1-1.326-.792c-5.477-10.17.014-20.371.25-20.8a1.5,1.5,0,0,1,.859-.707l41.579-13.32a1.505,1.505,0,1,1,.92,2.867l-40.971,13.125c-.9,1.949-3.739,9.141-.526,16.311l40.9-12.411a1.506,1.506,0,0,1,.875,2.883L227.06,318.183A1.507,1.507,0,0,1,226.623,318.247Z" fill="#ac2d22"/>
        </g>
      </g>
      <path id="Path_7176" data-name="Path 7176" d="M169.755,284.816h47.458" fill="none" stroke="#fff" stroke-miterlimit="10" stroke-width="0.25" opacity="0.2"/>
    </g>
    <g id="Group_5971" data-name="Group 5971">
      <path id="Path_7177" data-name="Path 7177" d="M256.554,258.283l-.818,1.794a20.6,20.6,0,0,0,.818,18.7h0L211.82,291.718l-.648-21.355Z" fill="#e8e1ca"/>
      <path id="Path_7178" data-name="Path 7178" d="M214.543,292.8l41.93-13.06v-2.589l-45.731,13.707Z" fill="#d18c2b"/>
      <path id="Path_7179" data-name="Path 7179" d="M214.543,271.226h-99.66l43.953-12.943h97.719Z" fill="#ffab2f"/>
      <path id="Path_7180" data-name="Path 7180" d="M114.882,271.226l-.177.335a22.344,22.344,0,0,0,.177,21.236h99.661l-.152-.368a27.369,27.369,0,0,1,.152-21.2H114.882Z" fill="#ea9a23"/>
      <path id="Path_7181" data-name="Path 7181" d="M216.768,276.753s2.114-1.046,5.367-2.363c1.623-.669,3.53-1.407,5.587-2.157,1.032-.366,2.088-.772,3.179-1.134l3.3-1.119,3.32-1.055c1.092-.357,2.185-.654,3.232-.971,2.1-.616,4.075-1.151,5.779-1.574,3.4-.866,5.723-1.274,5.723-1.274s-2.113,1.047-5.365,2.365c-1.623.669-3.53,1.408-5.588,2.156-1.031.366-2.087.775-3.179,1.133l-3.3,1.119-3.321,1.053c-1.093.354-2.184.654-3.232.97-2.1.615-4.075,1.15-5.779,1.574C219.09,276.342,216.768,276.753,216.768,276.753Z" fill="#d3c9ae"/>
      <path id="Path_7182" data-name="Path 7182" d="M227.957,282.952a36.536,36.536,0,0,1,3.362-1.739c1.022-.481,2.228-1,3.535-1.517s2.708-1.044,4.126-1.522,2.849-.918,4.2-1.293,2.626-.7,3.731-.937a36.234,36.234,0,0,1,3.729-.653,36.541,36.541,0,0,1-3.361,1.741c-1.022.481-2.229,1-3.536,1.517s-2.708,1.041-4.126,1.52-2.851.914-4.2,1.291-2.627.7-3.732.936A36.48,36.48,0,0,1,227.957,282.952Z" fill="#d3c9ae"/>
      <path id="Path_7183" data-name="Path 7183" d="M118.727,278.713q39.56,2.393,79.225,1.933c3.917-.046,8.27-.29,11.01-3.09-2.555-.974-5.374-.886-8.107-.809a430.427,430.427,0,0,1-47.06-1.263c-12.226-1-24.648-2.513-36.663-.041-.519.107-1.118.29-1.292.79-.321.922,1.034,1.449,2.009,1.477l47.161,1.34" fill="#fff" stroke="#fff" stroke-miterlimit="10" stroke-width="0.25" opacity="0.2"/>
      <path id="Path_7184" data-name="Path 7184" d="M222.2,269.954a8.11,8.11,0,0,0-5.381,1.869.946.946,0,0,0-1.186.364c-2.365,3.409-6,18.238,1.549,18.553a3.209,3.209,0,0,0,2.643-1.12c1.089-1.358.147-2.894-.023-4.463a17.171,17.171,0,0,1,.891-7.648c.744-2.076,2.12-3.817,2.742-5.933A1.293,1.293,0,0,0,222.2,269.954Z" fill="#d3ccba"/>
      <g id="Group_5970" data-name="Group 5970">
        <g id="Group_5969" data-name="Group 5969">
          <path id="Path_7185" data-name="Path 7185" d="M214.542,293.013a1.294,1.294,0,0,1-1.139-.681c-5.423-10.07.015-20.173.249-20.6a1.3,1.3,0,0,1,.739-.608L255.97,257.8a1.294,1.294,0,0,1,.79,2.465L215.7,273.423c-.874,1.865-3.91,9.33-.49,16.74L256.285,277.7a1.294,1.294,0,1,1,.752,2.477l-42.119,12.781A1.284,1.284,0,0,1,214.542,293.013Z" fill="#ea9a23"/>
        </g>
      </g>
      <path id="Path_7186" data-name="Path 7186" d="M157.675,259.793h47.457" fill="none" stroke="#fff" stroke-miterlimit="10" stroke-width="0.25" opacity="0.2"/>
      <path id="Path_7187" data-name="Path 7187" d="M117.027,290.443H163.19" fill="#fff" stroke="#fff" stroke-miterlimit="10" stroke-width="0.25" opacity="0.2"/>
      <path id="Path_7188" data-name="Path 7188" d="M168.583,291.737h2.589" fill="#fff" stroke="#fff" stroke-miterlimit="10" stroke-width="0.25" opacity="0.2"/>
      <path id="Path_7189" data-name="Path 7189" d="M178.075,291.737h30.2" fill="#fff" stroke="#fff" stroke-miterlimit="10" stroke-width="0.25" opacity="0.2"/>
      <path id="Path_7190" data-name="Path 7190" d="M240.2,274l-10.247,3.014v14.358l5.5-7.4,4.746,3.71Z" fill="#dc432b"/>
      <path id="Path_7191" data-name="Path 7191" d="M221.707,280.26a36.531,36.531,0,0,1,3.362-1.739c1.022-.481,2.228-1,3.535-1.517s2.708-1.044,4.126-1.522,2.849-.918,4.2-1.294,2.626-.7,3.731-.936a36.245,36.245,0,0,1,3.728-.653,36.379,36.379,0,0,1-3.361,1.741c-1.022.481-2.228,1-3.535,1.517s-2.709,1.041-4.127,1.519-2.85.915-4.2,1.292-2.627.7-3.732.936A36.49,36.49,0,0,1,221.707,280.26Z" fill="#d3c9ae"/>
    </g>
    <g id="Group_5973" data-name="Group 5973">
      <rect id="Rectangle_1790" data-name="Rectangle 1790" width="30.626" height="30.627" transform="translate(162.678 240.835)" fill="#dc432b"/>
      <g id="Group_5972" data-name="Group 5972">
        <path id="Path_7192" data-name="Path 7192" d="M175.678,259.867l.02.1.2.04.279.02.757-.02h1.615l1.017.02h.319l2.333-.04.319-.02.657-.06h.339l.26.06.119.179.04.28.02.3.02.32v.817l.04.5-.02.32-.02.278-.04.2-.08.119-.119.061-.638.1-.279.02-.439-.02-.3-.02-1.456-.079h-1.116l-1.754.1h-2.891l-1.456-.02-1.116-.04-.239-.02-.14-.08-.04-.119-.02-.219.04-1.2v-.319l-.059-1.216.019-.319.06-.6.12-.6.06-.319.1-.339.1-.319.06-.16.139-.319.16-.259.339-.359.219-.2.359-.279.239-.159.4-.259.259-.14.419-.2.3-.1.5-.16.339-.08.339-.059.319-.041,1.017-.059.179-.02.359-.02.5-.02.359-.08.16-.079.3-.18.14-.139.179-.259.119-.419v-.439l-.039-.159-.1-.319-.08-.14-.2-.239-.259-.119-.439-.12-.279-.04-.3-.02h-.3l-.279.02-.279.06-.419.14-.259.139-.12.08-.2.219-.1.119-.14.3-.1.28-.18.119-.3.08h-.18l-.339.02-.837-.04h-.838l-.338-.02-.519-.059-.259-.04-.14-.08-.059-.1v-.339l.039-.3.041-.179.059-.32.04-.139.1-.3.2-.379.159-.279.18-.259.219-.259.24-.22.239-.2.378-.259.28-.16.6-.319.339-.139.319-.1.438-.1.319-.06.3-.059.28-.04.438-.02.319-.02h.658l.458-.02h.32l.3.02.3.06.418.1.3.1.638.2.3.1.3.12.419.2.279.159.259.219.26.259.219.259.2.259.259.359.14.28.139.3.1.3.1.279.06.3.06.478v.3l-.02.439-.04.278-.1.459-.08.3-.119.339-.14.3-.219.38-.18.259-.259.338-.219.22-.319.3-.26.16-.418.219-.3.119-.339.1-.319.1-.339.059-.319.06-.458.04-.32.04-.338.06-.319.059-.479.04-.339.021h-.159l-.359.02h-.16l-.338.059-.16.06-.3.14-.12.1-.219.219-.159.24-.12.279-.04.16-.06.259Z" fill="#e8b03f"/>
      </g>
      <path id="Path_7193" data-name="Path 7193" d="M162.678,240.835l11.6-6.11h30.626l-11.6,6.11Z" fill="#e54535"/>
      <path id="Path_7194" data-name="Path 7194" d="M193.3,240.835v30.627l11.6-6.11V234.725Z" fill="#ac2d22"/>
    </g>
    <g id="Group_5976" data-name="Group 5976">
      <rect id="Rectangle_1791" data-name="Rectangle 1791" width="30.626" height="30.627" transform="translate(157.063 209.252)" fill="#ffab2f"/>
      <path id="Path_7195" data-name="Path 7195" d="M157.063,209.252l11.6-6.11h30.626l-11.6,6.11Z" fill="#6c9d86"/>
      <path id="Path_7196" data-name="Path 7196" d="M187.69,209.252v30.627l11.6-6.11V203.142Z" fill="#ea9a23"/>
      <g id="Group_5975" data-name="Group 5975">
        <g id="Group_5974" data-name="Group 5974">
          <path id="Path_7197" data-name="Path 7197" d="M178.662,227.431v.316l-.02.338-.059.317-.1.436-.1.3-.06.119-.238.416-.218.277-.1.119-.218.239-.2.2-.218.179-.475.357-.258.139-.4.158-.277.1-.417.139-.278.079-.436.119-.317.079-.337.06-.337.039-.437.02h-.317l-1.13-.039-.674-.04-.337-.04-.3-.059-.317-.06-.456-.119-.3-.1-.3-.119-.3-.139-.417-.237-.258-.16-.555-.455-.317-.318-.2-.238-.179-.3-.158-.278-.159-.416-.1-.278-.159-.4-.059-.277-.1-.456.039-.218.179-.139.317-.059.674-.04.674.04h.317l.913-.08h.476l.277.06.159.139.119.258.04.178.158.3.119.119.238.218.119.08.3.138.139.08.337.1.338.08.337.039h.317l.5-.06.318-.1.178-.059.278-.178.119-.1.2-.218.1-.119.1-.257.039-.159v-.3l-.039-.159-.1-.3-.079-.118-.2-.238-.357-.238-.119-.06-.258-.119-.317-.06-.337-.039-.337-.02h-.5l-.635.04-.436.019h-.436l-.238-.079-.139-.158-.059-.238-.04-.3-.02-.278.02-.277v-.3l-.02-.436.02-.358.059-.257.08-.139.119-.06.674-.059.317.02.615.059.3.02.139.02.3-.02.437-.059.337-.08.159-.059.317-.139.139-.1.218-.218.1-.119.119-.3.02-.2-.02-.2-.139-.3-.1-.158-.318-.318-.257-.119-.3-.059-.278-.04-.456-.019-.3.019-.5.04-.3.059-.159.06-.277.119-.139.1-.238.2-.079.119-.139.258-.1.238-.178.119-.278.06h-.5l-.833-.04-.3-.02-.6.04-.3-.02-.437-.02-.238-.06-.1-.059-.059-.119v-.218l.059-.437.06-.3.2-.555.139-.4.138-.277.179-.3.218-.258.258-.238.258-.219.3-.178.3-.2.3-.178.3-.159.318-.139.337-.119.337-.08.337-.059.337-.039.674-.12.357-.039.337-.02.317.02.456.02.933.119.456.1.3.06.317.1.3.1.456.158.278.119.277.139.278.178.3.218.258.219.258.258.2.218.079.119.179.257.139.318.119.3.1.278.119.416.059.3.02.338v.337l-.02.139-.059.3-.04.119-.1.258-.278.515-.238.377-.178.218-.337.317-.139.159-.06.159.08.158.456.318.238.2.2.2.2.218.178.238.218.437.1.317.059.337.02.317Z" fill="#dc432b"/>
        </g>
      </g>
    </g>
    <g id="Group_5978" data-name="Group 5978">
      <g id="Group_5977" data-name="Group 5977">
        <path id="Path_7198" data-name="Path 7198" d="M300.948,160.462q.418-.357.931-.787a51.007,51.007,0,0,0,4.942-4.608,13.477,13.477,0,0,0,2.423-3.661,9.746,9.746,0,0,0,.792-3.823,8.729,8.729,0,0,0-2.794-6.564,10.1,10.1,0,0,0-7.235-2.614,10.512,10.512,0,0,0-7.149,2.4,9.961,9.961,0,0,0-3.193,6.856l-.2,2.127h7.854l.01-1.582a2.658,2.658,0,0,1,.677-2.079,2.485,2.485,0,0,1,1.928-.659,2.4,2.4,0,0,1,1.818.617,1.812,1.812,0,0,1,.6,1.427,4.209,4.209,0,0,1-.988,2.335,30.836,30.836,0,0,1-5.09,4.858,33.353,33.353,0,0,0-4.294,4.058,13.549,13.549,0,0,0-2.4,3.967,7.749,7.749,0,0,0-.5,3l.066,2.2h20.921v-7.474Z" fill="#dc432b"/>
        <path id="Path_7199" data-name="Path 7199" d="M329.043,163.911h-7.421v-6.824h-6.776V149.7h6.776v-6.776h7.421V149.7h6.776v7.389h-6.776Z" fill="#ffab2f"/>
        <path id="Path_7200" data-name="Path 7200" d="M351.935,160.462q.418-.357.932-.787a51.128,51.128,0,0,0,4.942-4.608,13.477,13.477,0,0,0,2.423-3.661,9.763,9.763,0,0,0,.791-3.823,8.729,8.729,0,0,0-2.793-6.564,10.1,10.1,0,0,0-7.235-2.614,10.517,10.517,0,0,0-7.15,2.4,9.96,9.96,0,0,0-3.192,6.856l-.2,2.19h7.859l.011-1.645a2.664,2.664,0,0,1,.676-2.079,2.488,2.488,0,0,1,1.929-.659,2.391,2.391,0,0,1,1.817.617,1.812,1.812,0,0,1,.6,1.427,4.2,4.2,0,0,1-.988,2.335,30.81,30.81,0,0,1-5.089,4.858,33.353,33.353,0,0,0-4.294,4.058,13.528,13.528,0,0,0-2.4,3.967,7.731,7.731,0,0,0-.5,3l.067,2.2h20.921v-7.474Z" fill="#dc432b"/>
      </g>
    </g>
    <g id="Group_5986" data-name="Group 5986">
      <g id="Group_5980" data-name="Group 5980">
        <path id="Path_7201" data-name="Path 7201" d="M202.049,162.881l7.071,31.763a98.548,98.548,0,0,1-30.457,20.964,64.311,64.311,0,0,1-36.366,4.481L127.035,191.93Z" fill="#e8b03f"/>
        <g id="Group_5979" data-name="Group 5979" clip-path="url(#clip-path)">
          <path id="Path_7202" data-name="Path 7202" d="M202.049,162.881l7.071,31.763a98.548,98.548,0,0,1-30.457,20.964,64.311,64.311,0,0,1-36.366,4.481L127.035,191.93Z" fill="#ffc82f"/>
          <path id="Path_7203" data-name="Path 7203" d="M201.537,156.923l7.328,32.918A102.093,102.093,0,0,1,177.3,211.568a66.649,66.649,0,0,1-37.689,4.645l-15.817-29.185Z" fill="#0b1e1d"/>
        </g>
      </g>
      <path id="Path_7205" data-name="Path 7205" d="M188.587,164.088l14.736,3.869-29.215,30.614-43.714.124Z" fill="#153836"/>
      <path id="Path_7206" data-name="Path 7206" d="M160.98,171.631l55.643-15.275L171.65,195.307l-58.441,4.845Z" fill="#38393a"/>
      <path id="Path_7207" data-name="Path 7207" d="M159.284,167.777,214.927,152.5l-44.973,38.951L111.513,196.3Z" fill="#153836"/>
      <path id="Path_7208" data-name="Path 7208" d="M216.622,156.356l-1.7-3.855-44.973,38.951,1.7,3.855Z" fill="#1c423e"/>
      <path id="Path_7209" data-name="Path 7209" d="M171.65,195.307l-1.7-3.855L111.513,196.3l1.7,3.855Z" fill="#0b1e1d"/>
      <g id="Group_5985" data-name="Group 5985">
        <g id="Group_5981" data-name="Group 5981">
          <path id="Path_7210" data-name="Path 7210" d="M158.409,179.151c.364.828,2.961.487,5.8-.761s4.844-2.932,4.48-3.76-2.96-.487-5.8.761S158.045,178.323,158.409,179.151Z" fill="#d58a1c"/>
        </g>
        <g id="Group_5982" data-name="Group 5982">
          <path id="Path_7211" data-name="Path 7211" d="M153.726,223.359l-13.218-31.253,19.431-14.458,1.791,2.407-17.541,13.051,12.3,29.083Z" fill="#d58a1c"/>
        </g>
        <g id="Group_5983" data-name="Group 5983">
          <path id="Path_7212" data-name="Path 7212" d="M152.207,224.753a3.158,3.158,0,1,0,1.62-4.163A3.159,3.159,0,0,0,152.207,224.753Z" fill="#d58a1c"/>
        </g>
        <g id="Group_5984" data-name="Group 5984">
          <path id="Path_7213" data-name="Path 7213" d="M155.631,224.78l.3.586-.231-.614s5.768.913,12.878,19.254l-2.634,1.159-2.184.961-2.635,1.158C152.406,229.649,155.631,224.78,155.631,224.78Z" fill="#d58a1c"/>
        </g>
      </g>
    </g>
    <g id="Group_5994" data-name="Group 5994">
      <g id="Group_5988" data-name="Group 5988">
        <g id="Group_5987" data-name="Group 5987">
          <path id="Path_7214" data-name="Path 7214" d="M102.607,252.119H97.634v4.974H93.282v-4.974H88.308v-4.352h4.974v-4.974h4.352v4.974h4.973Z" fill="#7377b4"/>
        </g>
      </g>
      <g id="Group_5990" data-name="Group 5990">
        <g id="Group_5989" data-name="Group 5989">
          <path id="Path_7215" data-name="Path 7215" d="M174.072,132.326c0-1.088-.714-1.8-2.3-1.8-1.71,0-2.736,1.15-3.357,2.611l-4.29-2.456a8.258,8.258,0,0,1,7.834-5c3.543,0,7.087,2.176,7.087,6.217,0,4.632-4.974,6.062-4.974,8.206H169.1C169.1,136.46,174.072,135.062,174.072,132.326Zm-5.439,13.025a2.953,2.953,0,1,1,2.952,2.953A2.971,2.971,0,0,1,168.633,145.351Z" fill="#47bbba"/>
        </g>
      </g>
      <g id="Group_5992" data-name="Group 5992">
        <g id="Group_5991" data-name="Group 5991">
          <path id="Path_7216" data-name="Path 7216" d="M380.616,239.64h13.678v4.352H380.616Zm0,6.528h13.678v4.352H380.616Z" fill="#ffab2f"/>
        </g>
      </g>
      <g id="Group_5993" data-name="Group 5993">
        <path id="Path_7217" data-name="Path 7217" d="M337.224,101.631a5.27,5.27,0,0,1,5.409-5.285,5.207,5.207,0,0,1,5.378,5.285,5.395,5.395,0,0,1-10.787,0Zm16.63-2.052,2.053,1.182-14.051,15.573-2.051-1.212Zm-9.573,2.052a1.664,1.664,0,1,0-1.679,1.71A1.679,1.679,0,0,0,344.281,101.631Zm4.041,12a5.394,5.394,0,1,1,5.409,5.284A5.27,5.27,0,0,1,348.322,113.63Zm7.056,0a1.664,1.664,0,1,0-1.679,1.709A1.678,1.678,0,0,0,355.378,113.63Z" fill="#9ec649"/>
      </g>
    </g>
    <g id="Group_6014" data-name="Group 6014">
      <path id="Path_7218" data-name="Path 7218" d="M280.556,176.324V291.049a5.11,5.11,0,0,0,5.106,4.924h82.354A5.11,5.11,0,0,0,373.124,291l.34-114.725a5.11,5.11,0,0,0-5.108-5.247H285.662A5.109,5.109,0,0,0,280.556,176.324Z" fill="#dc432b"/>
      <path id="Path_7219" data-name="Path 7219" d="M365.037,198.338l.521-19.34H288.41l.7,19.34Z" fill="#fff"/>
      <g id="Group_6001" data-name="Group 6001">
        <g id="Group_5996" data-name="Group 5996">
          <g id="Group_5995" data-name="Group 5995">
            <rect id="Rectangle_1792" data-name="Rectangle 1792" width="18.754" height="18.285" transform="translate(290.725 211.377)" fill="#e5e4e1"/>
            <path id="Path_7220" data-name="Path 7220" d="M291.436,222.424l-1.766,6.271,1.055.967,4.579-1Z" fill="#e5e4e1"/>
            <path id="Path_7221" data-name="Path 7221" d="M302.6,212.755l5.824-2.344,1.055.967-.813,3.487Z" fill="#e5e4e1"/>
          </g>
          <rect id="Rectangle_1793" data-name="Rectangle 1793" width="18.753" height="18.285" transform="translate(289.671 210.41)" fill="#fff"/>
        </g>
        <g id="Group_5998" data-name="Group 5998">
          <g id="Group_5997" data-name="Group 5997">
            <rect id="Rectangle_1794" data-name="Rectangle 1794" width="18.753" height="18.285" transform="translate(318.16 211.377)" fill="#e5e4e1"/>
            <path id="Path_7222" data-name="Path 7222" d="M318.87,222.424l-1.766,6.271,1.055.967,4.579-1Z" fill="#e5e4e1"/>
            <path id="Path_7223" data-name="Path 7223" d="M330.034,212.755l5.824-2.344,1.055.967-.813,3.487Z" fill="#e5e4e1"/>
          </g>
          <rect id="Rectangle_1795" data-name="Rectangle 1795" width="18.753" height="18.285" transform="translate(317.105 210.41)" fill="#fff"/>
        </g>
        <g id="Group_6000" data-name="Group 6000">
          <g id="Group_5999" data-name="Group 5999">
            <rect id="Rectangle_1796" data-name="Rectangle 1796" width="18.753" height="18.285" transform="translate(345.594 211.377)" fill="#e5e4e1"/>
            <path id="Path_7224" data-name="Path 7224" d="M346.3,222.424l-1.765,6.271,1.055.967,4.578-1Z" fill="#e5e4e1"/>
            <path id="Path_7225" data-name="Path 7225" d="M357.469,212.755l5.824-2.344,1.055.967-.813,3.487Z" fill="#e5e4e1"/>
          </g>
          <rect id="Rectangle_1797" data-name="Rectangle 1797" width="18.753" height="18.285" transform="translate(344.539 210.41)" fill="#fff"/>
        </g>
      </g>
      <g id="Group_6012" data-name="Group 6012">
        <g id="Group_6004" data-name="Group 6004">
          <g id="Group_6003" data-name="Group 6003">
            <g id="Group_6002" data-name="Group 6002">
              <rect id="Rectangle_1798" data-name="Rectangle 1798" width="18.754" height="18.285" transform="translate(290.725 238.804)" fill="#ffab2f"/>
              <path id="Path_7226" data-name="Path 7226" d="M291.436,249.851l-1.766,6.271,1.055.967,4.579-1Z" fill="#ffab2f"/>
              <path id="Path_7227" data-name="Path 7227" d="M302.6,240.181l5.824-2.344,1.055.967-.813,3.487Z" fill="#ffab2f"/>
            </g>
          </g>
          <rect id="Rectangle_1799" data-name="Rectangle 1799" width="18.753" height="18.285" transform="translate(289.671 237.837)" fill="#ffab2f"/>
        </g>
        <g id="Group_6007" data-name="Group 6007">
          <g id="Group_6006" data-name="Group 6006">
            <g id="Group_6005" data-name="Group 6005">
              <rect id="Rectangle_1800" data-name="Rectangle 1800" width="18.753" height="18.285" transform="translate(318.16 238.804)" fill="#d18c2b"/>
              <path id="Path_7228" data-name="Path 7228" d="M318.87,249.851l-1.766,6.271,1.055.967,4.579-1Z" fill="#d18c2b"/>
              <path id="Path_7229" data-name="Path 7229" d="M330.034,240.181l5.824-2.344,1.055.967-.813,3.487Z" fill="#d18c2b"/>
            </g>
          </g>
          <rect id="Rectangle_1801" data-name="Rectangle 1801" width="18.753" height="18.285" transform="translate(317.105 237.837)" fill="#ffab2f"/>
        </g>
        <g id="Group_6009" data-name="Group 6009">
          <g id="Group_6008" data-name="Group 6008">
            <rect id="Rectangle_1802" data-name="Rectangle 1802" width="18.754" height="18.285" transform="translate(290.725 266.231)" fill="#d18c2b"/>
            <path id="Path_7230" data-name="Path 7230" d="M291.436,277.278l-1.766,6.271,1.055.967,4.579-1Z" fill="#d18c2b"/>
            <path id="Path_7231" data-name="Path 7231" d="M302.6,267.608l5.824-2.344,1.055.967-.813,3.487Z" fill="#d18c2b"/>
          </g>
        </g>
        <rect id="Rectangle_1803" data-name="Rectangle 1803" width="18.753" height="18.285" transform="translate(289.671 265.264)" fill="#ffab2f"/>
        <g id="Group_6011" data-name="Group 6011">
          <g id="Group_6010" data-name="Group 6010">
            <rect id="Rectangle_1804" data-name="Rectangle 1804" width="18.753" height="18.285" transform="translate(318.16 266.231)" fill="#d18c2b"/>
            <path id="Path_7232" data-name="Path 7232" d="M318.87,277.278l-1.766,6.271,1.055.967,4.579-1Z" fill="#d18c2b"/>
            <path id="Path_7233" data-name="Path 7233" d="M330.034,267.608l5.824-2.344,1.055.967-.813,3.487Z" fill="#d18c2b"/>
          </g>
        </g>
        <rect id="Rectangle_1805" data-name="Rectangle 1805" width="18.753" height="18.285" transform="translate(317.105 265.264)" fill="#ffab2f"/>
      </g>
      <g id="Group_6013" data-name="Group 6013">
        <path id="Path_7234" data-name="Path 7234" d="M363.292,237.72l-2.4,28.511h-15.3V279.8l-1.055,3.747,1.055.967h18.753V238.687Z" fill="#4c0c0a"/>
        <rect id="Rectangle_1806" data-name="Rectangle 1806" width="18.753" height="45.829" transform="translate(344.539 237.72)" fill="#982217"/>
      </g>
      <path id="Path_7235" data-name="Path 7235" d="M287.023,173.021h78.764" fill="#fff" stroke="#fff" stroke-miterlimit="10" stroke-width="0.25" opacity="0.2"/>
      <path id="Path_7236" data-name="Path 7236" d="M368.553,294a6.007,6.007,0,0,0,2.423-3.893" fill="#fff" stroke="#fff" stroke-miterlimit="10" stroke-width="0.25" opacity="0.2"/>
      <path id="Path_7237" data-name="Path 7237" d="M369.655,188.492v.352" fill="#fff" stroke="#fff" stroke-miterlimit="10" stroke-width="0.25" opacity="0.2"/>
      <path id="Path_7238" data-name="Path 7238" d="M282.688,290.456a1.793,1.793,0,0,0,1.56,1.8" fill="#fff" stroke="#fff" stroke-miterlimit="10" stroke-width="0.25" opacity="0.2"/>
      <path id="Path_7239" data-name="Path 7239" d="M282.8,176.185l.351.352" fill="#fff" stroke="#fff" stroke-miterlimit="10" stroke-width="0.25" opacity="0.2"/>
      <path id="Path_7240" data-name="Path 7240" d="M282.452,179.7" fill="#fff" stroke="#fff" stroke-miterlimit="10" stroke-width="0.25" opacity="0.2"/>
    </g>
  </g>
</svg>
