<svg xmlns="http://www.w3.org/2000/svg" width="146" height="174.647" viewBox="0 0 146 174.647">
  <g id="Group_7978" data-name="Group 7978" transform="translate(-368.268 -445.016)">
    <g id="Group_7958" data-name="Group 7958" transform="translate(370.723 445.016)">
      <g id="Group_7957" data-name="Group 7957" transform="translate(0 0)">
        <g id="Group_7954" data-name="Group 7954">
          <path id="Path_12356" data-name="Path 12356" d="M372.036,525.557a1.587,1.587,0,0,0,1.465.814h27.959V512.72l.633-.211-.022-3.42c0-.071-.044-.107-.133-.107L398.3,510.2v13.638H375.144a7.843,7.843,0,0,1-.6-2.744,4.617,4.617,0,0,1,1.154-3.088,5.873,5.873,0,0,1,1.776-1.394,6.654,6.654,0,0,1,1.4-.579l-1.132-3.237a9.481,9.481,0,0,0-3.508,1.63,7.357,7.357,0,0,0-2.42,2.7,8.287,8.287,0,0,0-1,3.925,8.47,8.47,0,0,0,.067,1.05,11.323,11.323,0,0,0,.488,1.973A12.211,12.211,0,0,0,372.036,525.557Z" transform="translate(-370.685 -391.476)" fill="#fff"/>
          <path id="Path_12357" data-name="Path 12357" d="M430.325,510.941l-3.64,1.244v17.37a5.309,5.309,0,0,1-.106,1.111,3.728,3.728,0,0,1-1.347,2.115,3.1,3.1,0,0,1-1.646.471,2.118,2.118,0,0,1-.3-.021,2.291,2.291,0,0,1-2.009-1.09l-2.393,1.838c.057.071.178.2.363.385a5.729,5.729,0,0,0,3.676,1.668l.662.043a6.15,6.15,0,0,0,3.505-1.048,5.851,5.851,0,0,0,2.543-3.761,6.734,6.734,0,0,0,.213-1.71V516.269l.633-.211-.022-5.029Q430.459,510.941,430.325,510.941Z" transform="translate(-387.685 -392.169)" fill="#fff"/>
          <path id="Path_12358" data-name="Path 12358" d="M456.124,529.176v-2.13H477.3a2.324,2.324,0,0,0,1.6-.586,1.842,1.842,0,0,0,.635-1.4v-.54H470.01a4.738,4.738,0,0,1-3.3-8.088,4.641,4.641,0,0,1,3.374-1.386,4.59,4.59,0,0,1,3.328,1.386,4.218,4.218,0,0,1,1.386,3.027h3.582a7.147,7.147,0,0,0-2.45-5.292,8.611,8.611,0,0,0-11.739,0,7.516,7.516,0,0,0-2.427,5.616,8.539,8.539,0,0,0,1.618,4.737h-7.253v-8.265l.632-.211v-5.058c-.346-.063-.392-.094-.486-.094l-3.583,1.218a7.843,7.843,0,0,0-3.84-1.007,7.324,7.324,0,0,0-5.315,2.154,7.157,7.157,0,0,0-.047,10.327,7.279,7.279,0,0,0,5.222,2.2,3.963,3.963,0,0,0,.445,0h.227q1.155,0,2.95-.187v3.583a5.282,5.282,0,0,1-.129,1.218,4.07,4.07,0,0,1-1.616,2.318,3.989,3.989,0,0,1-1.975.515,2.772,2.772,0,0,1-.359-.023,2.81,2.81,0,0,1-2.411-1.194l-2.9,2.014a2.593,2.593,0,0,0,.461.421,7.184,7.184,0,0,0,4.411,1.827l.8.047a7.762,7.762,0,0,0,4.181-1.147,6.41,6.41,0,0,0,3.078-4.122A6.717,6.717,0,0,0,456.124,529.176Zm-3.8-6.746q-.891.118-1.475.164l-.727.023h-1.382a3.758,3.758,0,0,1-2.81-1.218,4.371,4.371,0,0,1,0-5.854,3.761,3.761,0,0,1,2.81-1.218,3.663,3.663,0,0,1,2.3.8,4.01,4.01,0,0,1,1.288,1.686Z" transform="translate(-395.615 -392.15)" fill="#fff"/>
          <path id="Path_12359" data-name="Path 12359" d="M560.7,499.961c0-.078-.038-.117-.112-.117l-2.131.773a7.027,7.027,0,0,0-4.972-2.061,6.735,6.735,0,0,0-5.018,2.154,7.489,7.489,0,0,0-.044,10.327,6.8,6.8,0,0,0,4.95,2.2,2.987,2.987,0,0,0,.4.023c.178.016.37.024.577.024a20.29,20.29,0,0,0,2.576-.211v3H539.215V504.95l.633-.211-.023-4.755c0-.093-.037-.14-.111-.14l-3.662,1.335v14.893H525.3V504.95l.633-.211-.023-5.007c0-.089-.037-.133-.111-.133l-3.662,1.265v15.208H509.482V492.095l.971.562-.538-5.5a.15.15,0,0,0-.164-.14l-3.433,1.335V518.6h53.772V504.95l.633-.211Zm-3.774,9.6q-.914.118-1.452.164l-.772.047q-.656,0-1.405-.023a3.734,3.734,0,0,1-2.787-1.218,4.065,4.065,0,0,1-1.147-2.927,4.118,4.118,0,0,1,1.147-2.927,3.778,3.778,0,0,1,2.974-1.191,3.712,3.712,0,0,1,1.633.453,3.982,3.982,0,0,1,1.81,2.072Z" transform="translate(-418.607 -383.707)" fill="#fff"/>
          <path id="Path_12360" data-name="Path 12360" d="M468.257,421.294a47.934,47.934,0,0,1-5.864.4c-.538,0-1.037-.017-1.5-.057a9.7,9.7,0,0,1-1.093-.057,18.684,18.684,0,0,1-13.339-5.69,18.845,18.845,0,0,1,.112-26.768,18.6,18.6,0,0,1,13.574-5.576,18.919,18.919,0,0,1,13.53,5.44L479.644,385l.056,15.382-1.321,1.247v33.575H441.828a33.186,33.186,0,1,0,12.053-59.933,32.844,32.844,0,0,0-25.519,24.169,33.678,33.678,0,0,0-.516,14.255h8.748l-7.483,5.112a33.583,33.583,0,0,0,4.16,8.173h34.985Z" transform="translate(-390.667 -343.962)" fill="#fff"/>
          <path id="Path_12361" data-name="Path 12361" d="M479.859,417V403.65L460.121,417Z" transform="translate(-402.269 -354.224)" fill="#fff"/>
          <path id="Path_12362" data-name="Path 12362" d="M474.229,343.7a8.558,8.558,0,1,0,8.558,8.558A8.558,8.558,0,0,0,474.229,343.7Z" transform="translate(-404.231 -333.021)" fill="#fff"/>
          <rect id="Rectangle_2656" data-name="Rectangle 2656" width="26.981" height="1.265" transform="translate(0 142.487)" fill="#fff"/>
          <rect id="Rectangle_2657" data-name="Rectangle 2657" width="80.336" height="1.265" transform="translate(61.142 142.487)" fill="#fff"/>
          <path id="Path_12363" data-name="Path 12363" d="M457.59,345.685V339.95L460.7,341.6a9.948,9.948,0,0,1,18.7-.33l6.137-3.5-15.325-10.59L454.2,338.154l2.2,1.165v6.4h-.036l-1.375,2.262,2.027,2.027,2.027-2.027-1.425-2.3Z" transform="translate(-400.176 -327.18)" fill="#fff"/>
        </g>
        <g id="Group_7955" data-name="Group 7955" transform="translate(9.368 108.546)">
          <path id="Path_12364" data-name="Path 12364" d="M400.755,507.784l-6.311-10.143-.109.067-.109-.067L388,507.7l.043.027h-.109v.256h12.711v-.128Zm-6.42-9.833,6.081,9.772H388.286Z" transform="translate(-386.108 -496.011)" fill="#fff"/>
          <ellipse id="Ellipse_645" data-name="Ellipse 645" cx="1.828" cy="1.828" rx="1.828" ry="1.828" transform="translate(0 10.012)" fill="#fff"/>
          <ellipse id="Ellipse_646" data-name="Ellipse 646" cx="1.828" cy="1.828" rx="1.828" ry="1.828" transform="translate(12.711 10.012)" fill="#fff"/>
          <ellipse id="Ellipse_647" data-name="Ellipse 647" cx="1.828" cy="1.828" rx="1.828" ry="1.828" transform="translate(6.312)" fill="#fff"/>
        </g>
        <path id="Path_12365" data-name="Path 12365" d="M527.468,495.795a1.824,1.824,0,0,0,.129-3.643V489.4a1.833,1.833,0,1,0-1.691-.878l-7.006,4.337a1.828,1.828,0,1,0,.37,1.26l6.388.025A1.822,1.822,0,0,0,527.468,495.795Zm-1.414-7.067a1.815,1.815,0,0,0,1.286.67v2.753a1.819,1.819,0,0,0-1.692,1.734l-6.375-.025a1.805,1.805,0,0,0-.233-.79Z" transform="translate(-421.899 -383.261)" fill="#fff"/>
        <g id="Group_7956" data-name="Group 7956" transform="translate(100.869 137.126)">
          <line id="Line_332" data-name="Line 332" x2="6.479" transform="translate(1.828 1.828)" fill="#fff"/>
          <ellipse id="Ellipse_648" data-name="Ellipse 648" cx="1.828" cy="1.828" rx="1.828" ry="1.828" fill="#fff"/>
          <ellipse id="Ellipse_649" data-name="Ellipse 649" cx="1.828" cy="1.828" rx="1.828" ry="1.828" transform="translate(6.385)" fill="#fff"/>
        </g>
        <ellipse id="Ellipse_650" data-name="Ellipse 650" cx="2.152" cy="2.152" rx="2.152" ry="2.152" transform="translate(131.533 108.548)" fill="#fff"/>
        <ellipse id="Ellipse_651" data-name="Ellipse 651" cx="2.152" cy="2.152" rx="2.152" ry="2.152" transform="translate(70.171 108.548)" fill="#fff"/>
      </g>
    </g>
    <text id="متعة_تعلم_الرياضيات" data-name="متعة تعلم الرياضيات" transform="translate(370.268 614.663)" fill="#fff" font-size="19" font-family="SegoeUI, Segoe UI" letter-spacing="-0.054em"><tspan x="0" y="0">متعة تعلم الرياضيات</tspan></text>
  </g>
</svg>
