<svg id="_Icons_10_Crown" data-name="_Icons / 10 Crown" xmlns="http://www.w3.org/2000/svg" width="14.217" height="10.657" viewBox="0 0 14.217 10.657">
  <path id="_10_Crown" data-name="10 Crown" d="M11.76,10.657H2.475A1.481,1.481,0,0,1,.994,9.371L.007,1.956a.889.889,0,0,1,1.481-.77L3.148,2.724a.889.889,0,0,0,1.3-.065L6.436.318A.889.889,0,0,1,7.8.318l1.985,2.34a.889.889,0,0,0,1.286.077l1.659-1.558a.889.889,0,0,1,1.481.77l-.987,7.406A1.481,1.481,0,0,1,11.76,10.657Z" transform="translate(0)" fill="#eb9f0b"/>
</svg>
